<?xml version="1.0" encoding="UTF-8"?>
<svg id="Layer_1" data-name="Layer 1" xmlns="http://www.w3.org/2000/svg" viewBox="0 0 356 114">
  <defs>
    <style>
      .cls-1, .cls-2, .cls-3, .cls-4, .cls-5 {
        stroke-width: 0px;
      }

      .cls-2 {
        fill: #12aaff;
      }

      .cls-3 {
        fill: #213147;
      }

      .cls-4 {
        fill: #9dcced;
      }

      .cls-5 {
        fill: #fff;
      }
    </style>
  </defs>
  <g>
    <path class="cls-3" d="m46.24,46.29v22.39c0,1.43.76,2.75,2,3.46l19.39,11.19c1.24.71,2.76.71,4,0l19.39-11.19c1.24-.71,2-2.03,2-3.46v-22.39c0-1.43-.76-2.75-2-3.46l-19.39-11.19c-1.24-.71-2.76-.71-4,0l-19.39,11.19c-1.23.71-2,2.03-2,3.46Z"/>
    <g>
      <path class="cls-2" d="m73.87,61.83l-2.77,7.58c-.08.21-.08.44,0,.65l4.75,13.05,5.5-3.18-6.6-18.11c-.15-.42-.74-.42-.89,0Z"/>
      <path class="cls-2" d="m79.41,49.07c-.15-.42-.74-.42-.89,0l-2.77,7.58c-.08.21-.08.44,0,.65l7.79,21.37,5.5-3.18-9.64-26.42Z"/>
    </g>
    <path class="cls-4" d="m69.63,32.47c.14,0,.27.04.4.11l20.98,12.11c.25.14.4.4.4.68v24.23c0,.28-.15.54-.4.68l-20.98,12.13c-.12.07-.26.11-.4.11s-.27-.04-.4-.11l-20.97-12.11c-.25-.14-.4-.4-.4-.68v-24.24c0-.28.15-.54.4-.68l20.98-12.11c.12-.07.26-.11.39-.11m0-3.54c-.75,0-1.5.2-2.16.58l-20.98,12.11c-1.33.77-2.16,2.2-2.16,3.74v24.23c0,1.54.83,2.98,2.16,3.75l20.98,12.11c.67.39,1.41.58,2.16.58s1.5-.2,2.16-.58l20.98-12.11c1.34-.77,2.16-2.2,2.16-3.75v-24.23c0-1.54-.83-2.98-2.16-3.75l-20.97-12.1c-.68-.39-1.43-.58-2.17-.58h0Z"/>
    <polygon class="cls-3" points="55.76 78.7 57.69 73.42 61.57 76.64 57.95 79.96 55.76 78.7"/>
    <g>
      <path class="cls-5" d="m67.86,43.64h-5.32c-.4,0-.76.25-.89.62l-11.4,31.26,5.5,3.18,12.56-34.43c.11-.3-.12-.63-.46-.63Z"/>
      <path class="cls-5" d="m77.17,43.64h-5.32c-.4,0-.76.25-.89.62l-13.03,35.7,5.5,3.18,14.17-38.85c.12-.32-.12-.64-.44-.64Z"/>
    </g>
  </g>
  <g>
    <path class="cls-1" d="m117.7,50.6c1.33,0,2.6.09,3.61.65,1.29.7,1.96,2.07,1.96,3.74s-.72,2.92-1.94,3.65c-.8.47-1.94.68-3.69.68h-1.98v5.07h-2.39v-13.79h4.43Zm1.96,6.42c.76-.42,1.12-1.2,1.12-2.15,0-.89-.4-1.63-1.18-2.03-.46-.23-1.16-.29-1.99-.29h-1.94v4.81h1.92c.89,0,1.61-.09,2.07-.34Z"/>
    <path class="cls-1" d="m134.88,59.49c0,3.1-1.9,5.17-4.92,5.17s-4.86-2.07-4.86-5.17,1.9-5.17,4.88-5.17,4.9,2.09,4.9,5.17Zm-7.41,0c0,2.07.91,3.42,2.49,3.42s2.55-1.33,2.55-3.42-.93-3.42-2.53-3.42-2.51,1.33-2.51,3.42Z"/>
    <path class="cls-1" d="m139.12,54.59l1.03,4.9c.19.93.36,2,.53,2.94h.13c.17-.95.38-2.01.59-2.96l1.12-4.88h3.19l1.14,4.9c.21.93.38,2,.57,2.94h.13c.15-.95.32-2.01.51-2.94l1.04-4.9h2.15l-2.41,9.8h-3.08l-1.08-4.92c-.21-.99-.42-2.05-.61-3.04h-.13c-.21.99-.42,2.05-.65,3.06l-1.1,4.9h-3l-2.41-9.8h2.34Z"/>
    <path class="cls-1" d="m157.96,54.32c1.8,0,3.06.82,3.74,2.01.59,1.03.78,2.3.78,3.82h-6.97c.04,1.65.87,2.83,2.47,2.83,1.04,0,1.77-.53,2.07-1.52h2.41c-.53,2.13-2.13,3.19-4.5,3.19-3.15,0-4.81-1.99-4.81-5.21,0-2.96,1.86-5.13,4.81-5.13Zm-.11,1.65c-1.25,0-2.24.86-2.37,2.51h4.69c-.11-1.65-1.08-2.51-2.32-2.51Z"/>
    <path class="cls-1" d="m167.6,54.59v1.46c.61-1.03,1.48-1.56,2.6-1.56.32,0,.76.02,1.08.09v1.98c-.34-.08-.68-.09-.99-.09-1.88,0-2.56,1.24-2.56,3.63v4.29h-2.28v-9.8h2.15Z"/>
    <path class="cls-1" d="m177.78,54.32c1.8,0,3.06.82,3.74,2.01.59,1.03.78,2.3.78,3.82h-6.97c.04,1.65.87,2.83,2.47,2.83,1.04,0,1.77-.53,2.07-1.52h2.41c-.53,2.13-2.13,3.19-4.5,3.19-3.15,0-4.81-1.99-4.81-5.21,0-2.96,1.86-5.13,4.81-5.13Zm-.11,1.65c-1.25,0-2.24.86-2.37,2.51h4.69c-.11-1.65-1.08-2.51-2.32-2.51Z"/>
    <path class="cls-1" d="m188.8,54.4c1.18,0,2.22.38,2.87,1.31v-5.11h2.28v13.79h-2.15v-1.31c-.68.97-1.79,1.5-3,1.5-2.49,0-4.14-1.88-4.14-5.11s1.63-5.07,4.14-5.07Zm.53,8.42c1.44,0,2.38-1.25,2.38-3.34s-.91-3.33-2.34-3.33-2.36,1.27-2.36,3.33.89,3.34,2.32,3.34Z"/>
    <path class="cls-1" d="m207.42,64.58c-1.22,0-2.32-.51-3.02-1.48v1.29h-2.13v-13.79h2.28v5.13c.72-.97,1.77-1.33,2.91-1.33,2.51,0,4.08,1.94,4.08,5.07s-1.71,5.11-4.12,5.11Zm-.59-8.44c-1.42,0-2.34,1.35-2.34,3.33s.93,3.34,2.37,3.34,2.34-1.29,2.34-3.34-.89-3.33-2.37-3.33Z"/>
    <path class="cls-1" d="m214.85,66.48c1.08,0,1.75-.63,1.9-2l-3.53-9.9h2.55l1.44,4.9c.28.95.49,1.92.76,2.87h.11c.25-.93.48-1.94.76-2.87l1.54-4.9h2.37l-3.42,9.54c-1.08,3-2.05,4.16-4.01,4.16-.49,0-.85,0-1.46-.11v-1.84c.34.13.67.15.99.15Z"/>
    <path class="cls-1" d="m235.67,50.6l5.11,13.79h-2.55l-1.31-3.72h-5.49l-1.27,3.72h-2.49l5.07-13.79h2.93Zm-.15,5.91c-.44-1.27-.91-2.64-1.25-3.93h-.11c-.4,1.27-.78,2.64-1.25,3.93l-.8,2.17h4.18l-.76-2.17Z"/>
    <path class="cls-1" d="m245.21,54.59v1.46c.61-1.03,1.48-1.56,2.6-1.56.32,0,.76.02,1.08.09v1.98c-.34-.08-.68-.09-.99-.09-1.88,0-2.56,1.24-2.56,3.63v4.29h-2.28v-9.8h2.15Z"/>
    <path class="cls-1" d="m256.55,64.58c-1.22,0-2.32-.51-3.02-1.48v1.29h-2.13v-13.79h2.28v5.13c.72-.97,1.77-1.33,2.91-1.33,2.51,0,4.08,1.94,4.08,5.07s-1.71,5.11-4.12,5.11Zm-.59-8.44c-1.42,0-2.34,1.35-2.34,3.33s.93,3.34,2.37,3.34,2.34-1.29,2.34-3.34-.89-3.33-2.37-3.33Z"/>
    <path class="cls-1" d="m265.92,50.6v2.3h-2.28v-2.3h2.28Zm0,3.99v9.8h-2.28v-9.8h2.28Z"/>
    <path class="cls-1" d="m270,52.15h2.28v2.43h1.94v1.75h-1.94v4.62c0,1.2.27,1.77,1.18,1.77.19,0,.42,0,.78-.08v1.75c-.51.13-.95.17-1.46.17-1.94,0-2.77-.93-2.77-3.15v-5.07h-1.58v-1.75h1.58v-2.43Z"/>
    <path class="cls-1" d="m279.07,54.59v1.46c.61-1.03,1.48-1.56,2.6-1.56.32,0,.76.02,1.08.09v1.98c-.34-.08-.68-.09-.99-.09-1.88,0-2.56,1.24-2.56,3.63v4.29h-2.28v-9.8h2.15Z"/>
    <path class="cls-1" d="m288.49,64.58c-1.27,0-2.17-.49-2.77-1.33-.47-.67-.57-1.69-.57-3.1v-5.57h2.26v5.49c0,1.44.23,2.77,1.8,2.77.68,0,1.23-.25,1.61-.76s.61-1.33.61-2.53v-4.98h2.28v9.8h-2.13v-1.27c-.76,1.03-1.98,1.46-3.1,1.46Z"/>
    <path class="cls-1" d="m299.34,54.59l-.02,1.31c.59-.93,1.73-1.5,3.02-1.5s2.24.47,2.77,1.65c.7-1.18,1.94-1.65,3.34-1.65,1.08,0,1.84.3,2.34.87.59.68.84,1.69.84,2.98v6.14h-2.28v-5.76c0-1.31-.3-2.49-1.65-2.49-1.63,0-2.09,1.56-2.09,3.42v4.83h-2.28v-5.76c0-1.31-.34-2.49-1.69-2.49-1.63,0-2.07,1.56-2.07,3.42v4.83h-2.28v-9.8h2.05Z"/>
  </g>
</svg>