<?xml version="1.0" encoding="UTF-8"?>
<svg id="Layer_1" data-name="Layer 1" xmlns="http://www.w3.org/2000/svg" viewBox="0 0 167.08 57.11">
  <defs>
    <style>
      .cls-1 {
        fill: #12aaff;
      }

      .cls-1, .cls-2, .cls-3, .cls-4 {
        stroke-width: 0px;
      }

      .cls-2 {
        fill: #213147;
      }

      .cls-3 {
        fill: #9dcced;
      }

      .cls-4 {
        fill: #fff;
      }
    </style>
  </defs>
  <g>
    <path class="cls-2" d="m1.92,17.36v22.39c0,1.43.76,2.75,2,3.46l19.39,11.19c1.24.71,2.76.71,4,0l19.39-11.19c1.24-.71,2-2.03,2-3.46v-22.39c0-1.43-.76-2.75-2-3.46L27.3,2.71c-1.24-.71-2.76-.71-4,0L3.91,13.9c-1.23.71-2,2.03-2,3.46Z"/>
    <g>
      <path class="cls-1" d="m29.54,32.9l-2.77,7.58c-.08.21-.08.44,0,.65l4.75,13.05,5.5-3.18-6.6-18.11c-.15-.42-.74-.42-.89,0Z"/>
      <path class="cls-1" d="m35.08,20.14c-.15-.42-.74-.42-.89,0l-2.77,7.58c-.08.21-.08.44,0,.65l7.79,21.37,5.5-3.18-9.64-26.42Z"/>
    </g>
    <path class="cls-3" d="m25.3,3.54c.14,0,.27.04.4.11l20.98,12.11c.25.14.4.4.4.68v24.23c0,.28-.15.54-.4.68l-20.98,12.13c-.12.07-.26.11-.4.11s-.27-.04-.4-.11L3.94,41.35c-.25-.14-.4-.4-.4-.68v-24.24c0-.28.15-.54.4-.68L24.92,3.64c.12-.07.26-.11.39-.11m0-3.54c-.75,0-1.5.2-2.16.58L2.16,12.7c-1.33.77-2.16,2.2-2.16,3.74v24.23c0,1.54.83,2.98,2.16,3.75l20.98,12.11c.67.39,1.41.58,2.16.58s1.5-.2,2.16-.58l20.98-12.11c1.34-.77,2.16-2.2,2.16-3.75v-24.23c0-1.54-.83-2.98-2.16-3.75L27.48.58c-.68-.39-1.43-.58-2.17-.58h0Z"/>
    <polygon class="cls-2" points="11.44 49.77 13.36 44.49 17.24 47.71 13.62 51.03 11.44 49.77"/>
    <g>
      <path class="cls-4" d="m23.54,14.71h-5.32c-.4,0-.76.25-.89.62l-11.4,31.26,5.5,3.18L23.99,15.34c.11-.3-.12-.63-.46-.63Z"/>
      <path class="cls-4" d="m32.85,14.71h-5.32c-.4,0-.76.25-.89.62l-13.03,35.7,5.5,3.18,14.17-38.85c.12-.32-.12-.64-.44-.64Z"/>
    </g>
  </g>
  <g>
    <path class="cls-4" d="m72.77,12.13c1.19,0,2.34.08,3.24.58,1.16.63,1.76,1.86,1.76,3.36s-.65,2.63-1.74,3.28c-.72.43-1.74.61-3.31.61h-1.77v4.55h-2.15v-12.38h3.98Zm1.76,5.77c.68-.38,1.01-1.07,1.01-1.93,0-.8-.36-1.47-1.06-1.83-.41-.21-1.04-.26-1.79-.26h-1.74v4.32h1.72c.8,0,1.45-.09,1.86-.31Z"/>
    <path class="cls-4" d="m88.19,20.11c0,2.78-1.71,4.64-4.42,4.64s-4.37-1.86-4.37-4.64,1.71-4.64,4.38-4.64,4.4,1.88,4.4,4.64Zm-6.65,0c0,1.86.82,3.07,2.23,3.07s2.29-1.19,2.29-3.07-.84-3.07-2.27-3.07-2.25,1.19-2.25,3.07Z"/>
    <path class="cls-4" d="m92,15.71l.92,4.4c.17.84.32,1.79.48,2.64h.12c.15-.85.34-1.81.53-2.66l1.01-4.38h2.87l1.02,4.4c.19.84.34,1.79.51,2.64h.12c.14-.85.29-1.81.46-2.64l.94-4.4h1.93l-2.17,8.8h-2.76l-.97-4.42c-.19-.89-.38-1.84-.55-2.73h-.12c-.19.89-.38,1.84-.58,2.75l-.99,4.4h-2.7l-2.17-8.8h2.1Z"/>
    <path class="cls-4" d="m108.92,15.47c1.62,0,2.75.73,3.36,1.81.53.92.7,2.06.7,3.43h-6.26c.03,1.48.78,2.54,2.22,2.54.94,0,1.59-.48,1.86-1.36h2.17c-.48,1.91-1.91,2.87-4.04,2.87-2.83,0-4.32-1.79-4.32-4.67,0-2.66,1.67-4.61,4.32-4.61Zm-.1,1.48c-1.13,0-2.01.77-2.13,2.25h4.21c-.1-1.48-.97-2.25-2.08-2.25Z"/>
    <path class="cls-4" d="m117.56,15.71v1.31c.55-.92,1.33-1.4,2.34-1.4.29,0,.68.02.97.08v1.77c-.31-.07-.61-.08-.89-.08-1.69,0-2.3,1.11-2.3,3.26v3.86h-2.05v-8.8h1.93Z"/>
    <path class="cls-4" d="m126.71,15.47c1.62,0,2.75.73,3.36,1.81.53.92.7,2.06.7,3.43h-6.26c.03,1.48.78,2.54,2.22,2.54.94,0,1.59-.48,1.86-1.36h2.17c-.48,1.91-1.91,2.87-4.04,2.87-2.83,0-4.32-1.79-4.32-4.67,0-2.66,1.67-4.61,4.32-4.61Zm-.1,1.48c-1.13,0-2.01.77-2.13,2.25h4.21c-.1-1.48-.97-2.25-2.08-2.25Z"/>
    <path class="cls-4" d="m136.6,15.54c1.06,0,2,.34,2.58,1.18v-4.59h2.05v12.38h-1.93v-1.18c-.61.87-1.6,1.35-2.7,1.35-2.23,0-3.72-1.69-3.72-4.59s1.47-4.56,3.72-4.56Zm.48,7.56c1.3,0,2.13-1.13,2.13-3s-.82-2.99-2.1-2.99-2.12,1.14-2.12,2.99.8,3,2.08,3Z"/>
    <path class="cls-4" d="m153.31,24.69c-1.09,0-2.08-.46-2.71-1.33v1.16h-1.91v-12.38h2.05v4.61c.65-.87,1.59-1.19,2.61-1.19,2.25,0,3.67,1.74,3.67,4.56s-1.54,4.59-3.7,4.59Zm-.53-7.57c-1.28,0-2.1,1.21-2.1,2.99s.84,3,2.13,3,2.1-1.16,2.1-3-.8-2.99-2.13-2.99Z"/>
    <path class="cls-4" d="m159.98,26.39c.97,0,1.57-.56,1.71-1.79l-3.17-8.89h2.29l1.3,4.4c.26.85.44,1.72.68,2.58h.1c.22-.84.43-1.74.68-2.58l1.38-4.4h2.13l-3.07,8.56c-.97,2.7-1.84,3.74-3.6,3.74-.44,0-.77,0-1.31-.1v-1.65c.31.12.6.14.89.14Z"/>
    <path class="cls-4" d="m74.69,32.6l4.59,12.38h-2.29l-1.18-3.34h-4.93l-1.14,3.34h-2.23l4.55-12.38h2.63Zm-.14,5.3c-.39-1.14-.82-2.37-1.13-3.53h-.1c-.36,1.14-.7,2.37-1.13,3.53l-.72,1.95h3.75l-.68-1.95Z"/>
    <path class="cls-4" d="m83.25,36.18v1.31c.55-.92,1.33-1.4,2.34-1.4.29,0,.68.02.97.08v1.77c-.31-.07-.61-.08-.89-.08-1.69,0-2.3,1.11-2.3,3.26v3.86h-2.05v-8.8h1.93Z"/>
    <path class="cls-4" d="m93.43,45.15c-1.09,0-2.08-.46-2.71-1.33v1.16h-1.91v-12.38h2.05v4.61c.65-.87,1.59-1.19,2.61-1.19,2.25,0,3.67,1.74,3.67,4.56s-1.54,4.59-3.7,4.59Zm-.53-7.57c-1.28,0-2.1,1.21-2.1,2.99s.84,3,2.13,3,2.1-1.16,2.1-3-.8-2.99-2.13-2.99Z"/>
    <path class="cls-4" d="m101.84,32.6v2.06h-2.05v-2.06h2.05Zm0,3.58v8.8h-2.05v-8.8h2.05Z"/>
    <path class="cls-4" d="m105.5,34h2.05v2.18h1.74v1.57h-1.74v4.15c0,1.08.24,1.59,1.06,1.59.17,0,.38,0,.7-.07v1.57c-.46.12-.85.15-1.31.15-1.74,0-2.49-.84-2.49-2.83v-4.55h-1.42v-1.57h1.42v-2.18Z"/>
    <path class="cls-4" d="m113.64,36.18v1.31c.55-.92,1.33-1.4,2.34-1.4.29,0,.68.02.97.08v1.77c-.31-.07-.61-.08-.89-.08-1.69,0-2.3,1.11-2.3,3.26v3.86h-2.05v-8.8h1.93Z"/>
    <path class="cls-4" d="m122.1,45.15c-1.14,0-1.94-.44-2.49-1.19-.43-.6-.51-1.52-.51-2.78v-5h2.03v4.93c0,1.3.2,2.49,1.62,2.49.61,0,1.11-.22,1.45-.68.34-.46.55-1.19.55-2.27v-4.47h2.05v8.8h-1.91v-1.14c-.68.92-1.77,1.31-2.78,1.31Z"/>
    <path class="cls-4" d="m131.84,36.18l-.02,1.18c.53-.84,1.55-1.35,2.71-1.35s2.01.43,2.49,1.48c.63-1.06,1.74-1.48,3-1.48.97,0,1.65.27,2.1.79.53.61.75,1.52.75,2.68v5.51h-2.05v-5.17c0-1.18-.27-2.23-1.48-2.23-1.47,0-1.88,1.4-1.88,3.07v4.33h-2.05v-5.17c0-1.18-.31-2.23-1.52-2.23-1.47,0-1.86,1.4-1.86,3.07v4.33h-2.05v-8.8h1.84Z"/>
  </g>
</svg>