<svg width="19" height="20" viewBox="0 0 19 20" fill="none" xmlns="http://www.w3.org/2000/svg">
<path d="M18.9 0.257582C18.8923 0.220072 18.874 0.185548 18.8474 0.158055C18.8207 0.130562 18.7867 0.111241 18.7495 0.102356C16.2655 -0.504974 10.5259 1.65928 7.41633 4.7676C6.8617 5.31775 6.35609 5.91518 5.90521 6.55312C4.94629 6.4683 3.98737 6.53913 3.1701 6.89538C0.864198 7.91028 0.192827 10.5584 0.00579259 11.6976C-0.00481632 11.76 -0.000814635 11.8239 0.0174828 11.8845C0.0357802 11.945 0.0678745 12.0005 0.111241 12.0465C0.154608 12.0926 0.208065 12.1279 0.267407 12.1498C0.326749 12.1717 0.390359 12.1795 0.453232 12.1726L4.15617 11.7642C4.1588 12.0434 4.17565 12.3222 4.20664 12.5997C4.22527 12.7924 4.3108 12.9725 4.44838 13.1086L5.88231 14.5392C6.01864 14.6765 6.19863 14.762 6.39124 14.7809C6.66716 14.8118 6.94446 14.8286 7.22208 14.8314L6.81578 18.5297C6.80901 18.5925 6.81688 18.6561 6.83879 18.7154C6.8607 18.7747 6.89605 18.8281 6.94207 18.8714C6.98809 18.9148 7.04352 18.9469 7.10402 18.9652C7.16453 18.9836 7.22845 18.9876 7.29079 18.9771C8.42784 18.7947 11.0807 18.1234 12.0896 15.8175C12.4459 15.0002 12.5188 14.0459 12.4366 13.0917C13.076 12.6408 13.675 12.135 14.2267 11.5801C17.3461 8.47648 19.498 2.86503 18.9 0.257582ZM11.1146 7.87763C10.8298 7.59298 10.6357 7.23024 10.5571 6.83531C10.4784 6.44038 10.5187 6.03099 10.6727 5.65893C10.8267 5.28687 11.0877 4.96885 11.4225 4.7451C11.7573 4.52135 12.1509 4.40192 12.5536 4.40192C12.9563 4.40192 13.3499 4.52135 13.6848 4.7451C14.0196 4.96885 14.2805 5.28687 14.4345 5.65893C14.5886 6.03099 14.6288 6.44038 14.5501 6.83531C14.4715 7.23024 14.2775 7.59298 13.9926 7.87763C13.8038 8.06678 13.5794 8.21683 13.3325 8.31921C13.0856 8.42159 12.8209 8.47429 12.5536 8.47429C12.2863 8.47429 12.0216 8.42159 11.7747 8.31921C11.5278 8.21683 11.3035 8.06678 11.1146 7.87763Z" fill="black"/>
<path d="M5.10633 16.6902C4.87391 16.923 4.50112 17.0138 4.0524 17.0914C3.04429 17.2631 2.15407 16.392 2.33517 15.3729C2.4043 14.9865 2.60872 14.4449 2.73596 14.3177C2.76377 14.2904 2.78228 14.255 2.78886 14.2167C2.79544 14.1783 2.78976 14.1388 2.77262 14.1038C2.75548 14.0688 2.72776 14.0401 2.69339 14.0218C2.65902 14.0035 2.61975 13.9964 2.58115 14.0017C2.01741 14.0707 1.49294 14.3263 1.09124 14.7278C0.0941533 15.7257 0 19.4287 0 19.4287C0 19.4287 3.70505 19.3345 4.70215 18.3366C5.10488 17.9352 5.36079 17.4099 5.42865 16.8454C5.44434 16.6681 5.22847 16.5625 5.10633 16.6902Z" fill="black"/>
</svg>
