<svg width="22" height="14" viewBox="0 0 22 14" fill="none" xmlns="http://www.w3.org/2000/svg">
<path d="M21.9995 3.15597L21.9939 3.1043C21.9827 3.00516 21.8948 2.48709 21.3055 2.05978C20.7329 1.64225 19.8588 1.44257 18.7263 1.4677L18.549 1.47189V2.99678L18.7347 2.99259C19.9482 2.96047 20.3545 3.24534 20.4648 3.35286C20.2247 5.54664 12.7524 8.89245 5.76196 10.9522L5.50781 11.0318L5.67399 11.2426C5.82061 11.4283 6.06359 11.737 6.35963 12.0246L6.42107 12.0833C6.46994 12.1293 6.51882 12.1754 6.57049 12.2187L6.61657 12.255C7.78537 13.2423 9.26976 13.7841 10.8016 13.7841C14.0902 13.7841 16.8439 11.3432 17.2447 8.09091C20.49 6.36633 22.0456 4.75766 21.9981 3.15876L21.9995 3.15597ZM10.803 12.2494C9.9959 12.2494 9.20692 12.0539 8.49754 11.6825C9.91072 11.2091 11.8755 10.5109 13.8346 9.68701C14.3862 9.45521 14.9364 9.21223 15.4754 8.96367C14.7716 10.9173 12.9046 12.2494 10.803 12.2494Z" fill="url(#paint0_linear_509_701)"/>
<path d="M17.2967 5.07178V0L15.7662 0.55717V4.12362C10.0255 6.92902 3.9246 8.60751 1.88584 8.76391C2.30336 8.42319 3.02531 7.98192 3.8492 7.56997L3.85339 7.56718C3.86595 7.5616 3.88131 7.55462 3.90086 7.54344L4.63538 7.18875C4.75966 7.1301 4.89372 7.06587 5.03894 6.99884C5.25679 6.89551 5.49138 6.78798 5.73296 6.67766L5.83909 6.62879V2.12255L4.30862 2.67972V5.67504C2.10228 6.60086 -0.377757 7.99588 0.0481503 9.46212C0.0970249 9.63388 0.242252 9.95087 0.668159 10.138C0.89019 10.2357 1.19601 10.2832 1.60376 10.2832C4.68984 10.2832 12.3185 7.58813 17.0761 5.18071L17.2981 5.07178H17.2967Z" fill="url(#paint1_linear_509_701)"/>
<defs>
<linearGradient id="paint0_linear_509_701" x1="-8.28567" y1="0.908642" x2="58.6754" y2="28.409" gradientUnits="userSpaceOnUse">
<stop stop-color="#14EFC0"/>
<stop offset="1" stop-color="#2DBDC5"/>
</linearGradient>
<linearGradient id="paint1_linear_509_701" x1="-0.535552" y1="1.793" x2="51.9041" y2="19.8584" gradientUnits="userSpaceOnUse">
<stop stop-color="#14EFC0"/>
<stop offset="1" stop-color="#2DBDC5"/>
</linearGradient>
</defs>
</svg>
